<?xml version="1.0" standalone="no"?>
<!DOCTYPE svg PUBLIC "-//W3C//DTD SVG 20010904//EN"
 "http://www.w3.org/TR/2001/REC-SVG-20010904/DTD/svg10.dtd">
<svg version="1.0" xmlns="http://www.w3.org/2000/svg"
 width="1299.000000pt" height="947.000000pt" viewBox="0 0 1299.000000 947.000000"
 preserveAspectRatio="xMidYMid meet">

<g transform="translate(0.000000,947.000000) scale(0.100000,-0.100000)"
fill="#000000" stroke="none">
<path d="M3530 7079 c-671 -55 -1349 -390 -1796 -890 -136 -152 -166 -196
-158 -233 18 -83 84 -212 104 -204 4 2 42 49 84 106 152 201 324 362 541 505
374 245 823 381 1375 417 235 15 333 0 475 -73 61 -31 102 -63 171 -132 78
-78 97 -104 142 -195 87 -178 124 -400 103 -628 -20 -216 -74 -362 -172 -460
-99 -99 -193 -131 -416 -139 l-153 -6 0 594 c0 327 4 611 9 632 9 37 28 68 92
154 29 38 31 44 20 72 -18 43 -57 55 -155 48 -161 -11 -298 -78 -432 -211
-114 -113 -150 -192 -106 -233 11 -10 33 -26 50 -35 57 -30 72 -70 72 -185 0
-57 4 -103 8 -103 5 0 43 -29 85 -65 65 -55 79 -73 97 -124 12 -33 28 -62 36
-65 7 -3 20 -19 29 -37 21 -39 13 -87 -18 -126 -13 -16 -29 -56 -36 -93 -42
-212 -148 -365 -326 -469 -91 -53 -96 -59 -93 -99 5 -64 -8 -63 583 -59 504 3
534 5 612 25 314 82 542 309 636 633 47 161 68 421 48 602 -63 572 -409 962
-936 1051 -197 33 -374 41 -575 25z"/>
<path d="M7817 6446 c-96 -35 -158 -124 -159 -230 0 -75 27 -146 67 -172 26
-17 26 -17 63 19 21 21 46 37 56 37 60 0 80 -59 42 -124 -20 -35 -55 -63 -171
-141 -80 -53 -190 -132 -245 -176 -55 -43 -101 -79 -102 -79 -2 0 -1 136 2
302 4 229 8 309 19 328 7 14 43 55 78 92 56 57 65 70 59 92 -9 37 -41 41 -111
12 -135 -55 -264 -58 -411 -11 -92 29 -120 31 -128 9 -13 -35 -4 -54 49 -99
35 -30 64 -67 82 -104 l28 -56 0 -595 c0 -675 5 -636 -83 -690 -87 -53 -95
-67 -62 -100 19 -19 33 -20 308 -20 244 0 291 2 310 16 12 8 22 24 22 34 0 19
-11 29 -80 73 -19 12 -45 38 -57 56 -22 33 -23 42 -23 253 0 274 9 298 109
298 68 0 102 -41 234 -282 63 -117 119 -230 122 -250 7 -39 0 -50 -79 -115
-31 -26 -32 -37 -6 -63 19 -19 33 -20 319 -20 274 0 301 2 321 18 33 27 19 57
-47 94 -81 45 -112 83 -196 235 -152 277 -155 287 -121 373 15 37 15 42 0 65
-9 14 -33 36 -54 49 -35 24 -179 76 -208 76 -27 0 -13 16 34 39 108 52 236
135 286 186 32 31 68 82 87 121 31 63 34 76 34 164 0 84 -3 101 -27 146 -33
63 -95 118 -156 138 -55 19 -154 20 -205 2z"/>
<path d="M10545 6443 c-86 -18 -180 -55 -259 -101 -86 -51 -221 -183 -242
-238 -20 -52 -14 -62 52 -95 80 -38 79 -28 82 -504 2 -231 0 -453 -3 -492 -8
-89 -31 -126 -100 -162 -42 -22 -50 -31 -53 -59 -3 -27 1 -34 23 -42 15 -6
146 -10 313 -10 299 0 333 5 340 43 5 26 -13 43 -91 84 -54 29 -73 44 -84 71
-12 28 -13 116 -11 515 5 557 5 564 87 648 53 55 94 69 197 69 142 0 241 -55
293 -162 42 -86 56 -186 35 -263 -16 -65 -68 -156 -111 -197 -63 -60 -157 -74
-233 -35 -66 33 -85 66 -85 144 0 62 2 66 37 99 41 37 71 42 106 18 26 -18 27
-32 5 -78 -13 -29 -14 -38 -3 -51 21 -25 65 -19 94 15 80 96 13 237 -119 248
-150 12 -265 -118 -253 -287 9 -124 73 -218 186 -273 64 -32 71 -33 187 -33
100 0 129 4 175 23 119 47 234 172 279 303 48 137 36 329 -27 463 -79 167
-256 299 -454 340 -96 20 -269 20 -363 -1z"/>
<path d="M5745 6415 c-140 -30 -282 -111 -379 -216 -77 -83 -77 -109 0 -145
47 -22 59 -34 75 -70 19 -41 19 -69 17 -543 -3 -489 -3 -500 -24 -528 -11 -15
-36 -38 -55 -50 -72 -46 -82 -58 -76 -85 4 -15 16 -28 29 -32 13 -3 293 -6
623 -6 374 0 617 -4 645 -11 54 -12 87 -5 95 21 8 24 -4 46 -71 135 -64 83
-97 162 -119 281 -30 163 -76 180 -120 44 -58 -182 -148 -254 -315 -255 -105
0 -165 21 -214 75 -53 59 -67 120 -73 308 l-6 162 25 0 c42 0 117 -27 154 -55
20 -15 60 -60 90 -101 56 -75 83 -91 112 -62 20 20 14 49 -28 154 -60 146 -70
187 -80 322 -5 68 -14 130 -21 138 -30 37 -69 -1 -94 -92 -10 -36 -29 -79 -43
-96 -24 -28 -76 -58 -102 -58 -24 0 -4 353 26 442 50 153 206 221 351 154 57
-27 81 -56 90 -110 12 -74 -28 -116 -99 -102 -33 7 -58 -7 -58 -32 0 -33 44
-104 79 -127 79 -52 207 -52 297 0 58 34 129 116 148 172 21 60 20 155 -2 217
-24 68 -39 75 -100 47 -60 -28 -75 -26 -224 35 -154 63 -250 84 -383 83 -60 0
-137 -6 -170 -14z"/>
<path d="M8995 6420 c-265 -53 -466 -272 -547 -596 -18 -74 -22 -116 -22 -244
1 -134 5 -168 27 -252 84 -318 271 -522 539 -590 69 -17 101 -20 188 -15 58 3
130 13 160 22 230 69 418 274 495 540 67 234 50 505 -45 711 -102 221 -271
374 -462 419 -68 16 -264 19 -333 5z m257 -158 c117 -52 208 -219 249 -452 17
-97 17 -362 0 -465 -26 -159 -95 -329 -164 -403 -38 -41 -123 -75 -187 -75
-64 0 -149 34 -187 75 -42 45 -94 145 -124 237 -75 235 -78 523 -9 771 78 276
238 394 422 312z"/>
<path d="M9104 5721 c-37 -16 -74 -70 -74 -107 0 -76 47 -124 121 -124 39 0
53 5 77 30 52 52 51 129 -2 179 -26 25 -89 36 -122 22z"/>
<path d="M3192 5789 c-115 -57 -217 -256 -231 -450 -6 -81 -13 -107 -44 -172
-43 -92 -109 -162 -187 -199 -30 -14 -56 -25 -58 -23 -1 1 17 31 41 67 43 63
84 174 106 286 14 70 14 220 0 263 -40 120 -145 162 -241 99 -26 -17 -53 -42
-62 -55 -22 -34 -33 -31 -40 9 -8 44 -32 65 -50 45 -21 -22 -78 -174 -146
-389 -93 -293 -136 -382 -200 -415 -41 -21 -55 -19 -79 11 -39 49 -29 119 45
347 73 224 76 259 27 318 -36 42 -66 52 -106 35 -37 -15 -129 -110 -173 -175
l-29 -45 -6 56 c-7 60 -37 123 -59 123 -16 0 -55 -92 -119 -285 -97 -289 -119
-438 -75 -496 23 -32 50 -51 59 -42 3 3 23 72 45 154 64 244 122 376 222 502
56 69 126 128 140 114 4 -4 -20 -91 -53 -192 -54 -161 -62 -198 -67 -282 -4
-85 -2 -102 18 -142 13 -27 34 -53 51 -61 45 -24 128 -19 184 10 35 19 46 22
41 10 -20 -52 -48 -246 -43 -299 5 -57 28 -105 55 -114 14 -4 12 -10 52 158
28 117 110 416 126 460 5 11 8 9 16 -10 17 -45 80 -100 132 -115 171 -51 411
50 481 202 11 23 22 42 25 42 3 0 17 -17 31 -38 31 -44 116 -91 166 -91 139 0
267 167 309 404 11 62 19 82 39 98 26 21 26 41 -1 31 -20 -7 -34 13 -34 49 0
59 -30 107 -103 163 -62 48 -76 55 -116 55 -27 0 -64 -9 -89 -21z m188 -125
c14 -57 12 -116 -2 -112 -41 14 -75 131 -48 163 11 14 15 14 27 2 8 -8 19 -32
23 -53z m-84 -118 c20 -20 48 -39 61 -42 28 -7 28 -19 2 -120 -36 -140 -102
-259 -160 -290 -76 -39 -111 -4 -117 120 -6 132 34 281 108 396 l33 51 17 -39
c10 -21 35 -55 56 -76z m-617 70 c41 -49 29 -236 -25 -396 -52 -154 -120 -260
-169 -260 -30 0 -72 50 -81 96 -27 142 70 418 188 536 40 40 68 48 87 24z"/>
<path d="M5252 5700 c0 -14 2 -19 5 -12 2 6 2 18 0 25 -3 6 -5 1 -5 -13z"/>
</g>
</svg>
